<?xml version="1.0" standalone="no"?>
<!DOCTYPE svg PUBLIC "-//W3C//DTD SVG 20010904//EN"
 "http://www.w3.org/TR/2001/REC-SVG-20010904/DTD/svg10.dtd">
<svg version="1.0" xmlns="http://www.w3.org/2000/svg"
 width="835.000000pt" height="835.000000pt" viewBox="0 0 835.000000 835.000000"
 preserveAspectRatio="xMidYMid meet">
<metadata>
Created by potrace 1.14, written by Peter Selinger 2001-2017
</metadata>
<g transform="translate(0.000000,835.000000) scale(0.100000,-0.100000)"
fill="#000000" stroke="none">
<path d="M1613 6086 c6 -14 3 -15 -14 -5 -12 6 -24 7 -28 2 -7 -10 -43 -9 -61
2 -8 5 -11 4 -7 -2 4 -6 -18 -9 -58 -7 -36 2 -67 -1 -71 -7 -4 -6 -11 -6 -20
2 -11 9 -14 9 -14 -1 0 -8 -3 -10 -7 -7 -3 4 -13 1 -21 -6 -13 -10 -14 -9 -8
1 6 10 -2 12 -35 8 -26 -3 -49 0 -58 7 -11 9 -13 9 -8 0 5 -8 0 -11 -13 -10
-11 1 -20 6 -20 12 0 7 -3 7 -8 -1 -4 -5 -17 -10 -29 -11 -50 -2 -54 -3 -47
-15 6 -10 4 -10 -7 -2 -8 6 -23 10 -34 8 -10 -1 -26 3 -34 9 -12 9 -13 9 -7 0
5 -9 0 -13 -16 -13 -13 0 -45 -2 -73 -4 -27 -3 -55 0 -61 5 -8 7 -15 6 -20 -2
-5 -8 -3 -9 6 -4 8 5 11 4 6 -3 -3 -6 -18 -9 -32 -6 -19 3 -24 1 -18 -8 6 -10
5 -10 -8 0 -12 9 -18 10 -23 2 -5 -8 -11 -8 -19 -1 -7 6 -16 8 -20 4 -8 -8
-32 -14 -63 -16 -13 0 -23 -5 -23 -10 0 -5 -7 -7 -15 -3 -8 3 -15 1 -15 -5 0
-6 -4 -7 -10 -4 -5 3 -10 2 -10 -3 0 -6 -10 -8 -22 -4 -13 3 -19 1 -15 -5 4
-6 -6 -13 -22 -16 -16 -3 -35 -13 -44 -21 -8 -8 -17 -12 -21 -9 -3 4 -6 1 -6
-6 0 -7 -5 -9 -10 -6 -6 3 -10 1 -10 -5 0 -6 -4 -9 -9 -5 -6 3 -13 -1 -18 -8
-4 -7 -23 -19 -40 -26 -18 -7 -31 -17 -28 -21 5 -8 -19 -22 -40 -24 -5 -1 -9
-9 -9 -18 1 -10 -2 -16 -6 -15 -4 1 -7 -2 -7 -6 1 -5 -6 -13 -16 -18 -9 -6
-15 -14 -12 -20 4 -5 -1 -9 -9 -9 -8 0 -18 -5 -22 -12 -5 -7 -3 -8 7 -3 8 5 3
-3 -11 -17 -34 -33 -65 -71 -65 -80 0 -3 -3 -10 -7 -14 -5 -4 -8 -16 -8 -26 0
-11 -4 -16 -10 -13 -5 3 -10 -1 -10 -9 0 -8 -8 -20 -17 -25 -14 -8 -15 -11 -3
-11 12 0 10 -4 -4 -15 -11 -8 -16 -15 -12 -15 5 0 3 -6 -3 -13 -6 -8 -8 -17
-4 -20 3 -4 1 -7 -5 -7 -7 0 -12 -5 -12 -11 0 -5 5 -7 11 -3 6 3 3 -5 -6 -20
-14 -20 -14 -26 -4 -26 11 0 11 -2 1 -8 -7 -5 -13 -27 -15 -49 -1 -23 -5 -39
-8 -37 -4 2 -7 -9 -7 -24 -1 -27 -8 -83 -12 -92 -1 -3 -1 -13 0 -24 1 -13 -2
-16 -12 -10 -10 6 -10 4 1 -9 7 -10 9 -17 3 -17 -13 0 -15 -1036 -1 -1061 6
-12 5 -19 -4 -22 -9 -4 -9 -6 1 -6 6 -1 12 -8 12 -17 0 -9 -5 -12 -13 -8 -8 5
-7 2 2 -9 14 -17 21 -57 24 -122 0 -16 4 -32 8 -35 5 -3 9 -22 11 -43 1 -20 5
-37 8 -37 3 0 7 -12 8 -26 1 -14 13 -48 27 -75 13 -27 21 -49 17 -49 -4 0 -1
-4 7 -9 7 -5 14 -20 14 -35 0 -16 5 -26 14 -26 8 0 12 -4 8 -9 -3 -5 5 -17 17
-25 12 -9 19 -16 15 -16 -4 0 1 -8 10 -18 10 -10 27 -30 37 -44 11 -15 23 -25
28 -22 4 3 8 0 8 -7 0 -15 62 -69 72 -63 5 3 7 0 6 -8 -2 -7 5 -12 14 -12 10
1 15 -2 12 -7 -3 -5 6 -13 19 -18 14 -6 28 -15 32 -21 3 -5 10 -8 15 -5 4 3
10 -2 14 -10 3 -8 15 -15 26 -15 11 0 20 -4 20 -10 0 -5 6 -10 14 -10 7 0 19
-7 26 -15 7 -9 19 -14 26 -11 7 3 14 0 16 -5 2 -5 14 -11 28 -11 14 -1 28 -7
32 -13 5 -6 8 -4 8 5 0 13 1 13 10 0 5 -8 24 -15 42 -16 18 -1 33 -3 33 -4 0
-1 24 -4 54 -6 30 -2 61 -6 68 -8 7 -3 13 0 13 6 0 7 4 7 13 -1 8 -6 17 -8 20
-4 4 3 7 1 7 -7 0 -10 3 -10 15 0 11 9 15 9 15 1 0 -9 5 -9 20 -1 15 8 20 8
20 -1 0 -8 4 -8 15 1 12 10 15 10 15 0 0 -8 3 -10 7 -7 3 4 12 2 20 -4 10 -9
13 -8 13 2 0 11 2 11 10 -1 7 -11 10 -11 10 -2 0 7 5 10 11 7 5 -4 32 -7 60
-7 28 1 49 -4 49 -10 0 -7 6 -6 15 2 10 8 15 9 15 1 0 -7 8 -8 25 -1 14 5 25
6 25 1 0 -11 19 -9 38 2 6 5 12 4 12 -2 0 -6 7 -8 15 -5 8 4 15 1 15 -5 0 -8
5 -9 17 -3 9 6 29 6 45 2 17 -5 28 -5 28 1 0 6 5 7 12 3 6 -4 34 -8 62 -8 28
-1 57 -5 65 -10 10 -7 12 -6 6 4 -6 10 -4 11 6 4 18 -12 30 -12 51 -2 9 4 19
4 22 0 6 -10 42 -9 52 1 4 3 15 2 25 -4 14 -7 19 -6 19 3 0 8 3 9 8 3 8 -12
22 -13 39 -2 6 4 15 2 19 -4 4 -8 9 -7 15 2 6 9 9 10 9 2 0 -12 24 -12 36 0 4
4 13 2 21 -4 10 -9 13 -8 13 2 0 12 2 12 9 1 4 -8 12 -14 16 -14 4 0 12 6 16
14 5 7 9 8 9 2 0 -13 31 -14 48 -1 8 7 12 5 12 -7 0 -10 5 -14 10 -11 17 11 6
-19 -14 -37 -10 -10 -15 -18 -10 -18 5 -1 -1 -9 -14 -20 -13 -10 -23 -23 -23
-27 -1 -17 -33 -62 -41 -57 -5 3 -7 2 -6 -3 4 -15 -13 -53 -24 -53 -5 0 -7 -7
-4 -16 3 -8 2 -13 -3 -10 -5 3 -14 -1 -21 -9 -7 -8 -9 -15 -6 -15 4 0 -4 -11
-18 -23 -14 -13 -23 -27 -19 -30 3 -4 1 -7 -6 -7 -7 0 -10 -4 -6 -9 3 -6 -3
-14 -12 -20 -10 -6 -13 -11 -8 -11 7 0 7 -3 0 -8 -22 -16 -69 -75 -55 -68 8 4
5 -1 -7 -12 -12 -11 -20 -22 -17 -24 2 -3 -7 -17 -20 -31 -14 -15 -22 -27 -19
-27 3 0 0 -7 -7 -15 -6 -8 -9 -19 -5 -25 4 -6 3 -10 -2 -9 -26 4 -35 -1 -24
-15 10 -11 7 -17 -11 -30 -12 -9 -19 -16 -15 -16 5 0 2 -7 -5 -15 -31 -34 -38
-45 -31 -45 4 0 0 -5 -10 -11 -9 -6 -15 -14 -12 -19 3 -5 -5 -16 -17 -24 -12
-9 -17 -16 -10 -16 7 0 10 -5 7 -10 -4 -6 -10 -8 -15 -5 -4 3 -11 -2 -14 -11
-3 -8 -2 -12 4 -9 6 3 10 1 10 -5 0 -7 7 -10 15 -6 8 3 15 0 15 -7 0 -8 4 -6
10 3 5 8 10 11 10 6 0 -5 8 -2 17 5 9 8 14 9 10 3 -9 -16 26 -24 48 -12 12 8
20 6 26 -3 7 -12 9 -12 9 0 0 8 3 11 7 8 3 -4 13 -1 21 6 10 8 13 8 9 1 -4 -7
0 -14 8 -18 8 -3 15 -1 15 4 0 5 9 8 20 7 11 -1 20 -6 20 -12 0 -7 3 -7 8 0
10 15 93 15 85 1 -4 -6 1 -4 12 4 21 17 24 17 36 -2 6 -8 9 -9 9 -1 0 12 17
12 37 0 6 -4 14 -3 17 2 7 10 31 9 42 -2 4 -3 12 -3 18 0 18 12 76 10 76 -1 0
-7 3 -8 8 -1 10 14 52 15 52 1 0 -6 5 -4 10 4 5 8 10 12 10 8 0 -4 12 -3 26 2
14 6 23 6 20 1 -3 -5 1 -11 9 -15 8 -3 17 -1 19 3 6 10 62 9 72 -1 3 -4 15 -3
25 2 12 7 20 7 24 0 5 -7 11 -8 19 -1 10 8 36 9 56 1 3 -1 10 -1 15 0 38 8 45
8 45 -3 0 -8 3 -8 8 -2 11 16 33 17 50 3 14 -11 15 -10 9 6 -6 15 -5 17 7 7 7
-6 21 -9 30 -5 10 4 16 1 16 -7 0 -9 3 -10 8 -4 10 14 45 16 54 2 6 -9 8 -9 8
0 0 7 7 10 17 6 11 -4 14 -3 9 5 -10 17 0 15 18 -4 9 -8 16 -11 16 -5 0 6 7 7
17 4 11 -4 14 -3 9 5 -10 17 0 15 18 -4 9 -8 16 -11 16 -5 0 11 49 9 69 -3 9
-6 12 -5 7 2 -8 14 56 11 66 -3 5 -6 8 -6 8 2 0 13 57 12 79 -1 9 -6 12 -5 7
2 -8 13 33 13 51 0 6 -5 14 -5 17 0 8 14 66 13 66 -1 0 -8 3 -9 8 -1 10 14
114 15 105 0 -5 -8 -3 -8 8 0 20 15 61 16 52 1 -5 -9 -3 -9 8 -1 19 14 61 16
53 2 -5 -7 -2 -8 7 -2 22 13 43 14 51 1 5 -8 8 -8 8 -1 0 6 11 12 25 12 14 0
25 -6 25 -12 0 -8 2 -8 8 0 4 6 16 11 27 11 11 0 23 -5 27 -11 6 -8 8 -8 8 0
0 6 11 12 25 12 14 0 25 -6 25 -12 0 -7 3 -8 8 -1 10 15 52 16 52 2 0 -9 2 -9
8 0 8 13 29 12 51 -1 9 -6 12 -5 8 1 -4 6 6 10 24 11 20 0 27 -3 22 -11 -5 -9
-3 -9 8 -1 18 13 57 16 64 3 4 -5 12 -6 18 -2 19 13 117 11 110 -1 -4 -7 -2
-7 8 0 17 14 67 15 75 2 3 -5 11 -5 17 0 18 13 59 13 76 -1 10 -8 13 -8 8 -1
-9 15 55 14 65 -1 5 -6 8 -6 8 2 0 15 60 14 60 -1 0 -6 4 -5 9 3 5 7 15 11 22
9 8 -3 22 -1 33 4 12 7 16 7 12 0 -3 -5 1 -13 10 -16 9 -3 12 -2 8 5 -8 14 45
9 65 -6 12 -8 13 -7 6 4 -6 11 -4 13 8 8 10 -3 17 -2 17 3 0 6 5 10 11 10 5 0
7 -4 4 -10 -9 -14 9 -12 24 2 10 11 11 9 5 -7 -6 -16 -5 -18 7 -9 8 6 28 11
44 10 17 -1 40 2 53 6 14 5 21 4 17 -2 -3 -5 9 -7 31 -4 21 2 43 -1 52 -8 13
-11 14 -11 7 1 -6 11 -4 13 8 8 10 -4 17 -1 17 6 0 7 3 8 8 2 4 -5 30 -10 57
-10 28 0 53 5 57 10 5 6 8 6 8 -1 0 -7 13 -10 31 -8 22 3 28 0 23 -9 -6 -9 -5
-9 7 0 8 7 31 10 52 8 26 -2 35 0 30 8 -5 9 -3 9 8 1 8 -6 27 -9 44 -8 16 2
36 -2 44 -9 10 -8 13 -8 8 -1 -4 7 0 14 8 18 8 3 16 2 19 -2 5 -9 89 -7 104 2
6 3 13 3 16 -2 3 -5 25 -7 50 -6 30 2 46 -2 46 -9 0 -8 4 -7 9 2 5 7 14 10 20
7 6 -4 11 -2 11 5 0 8 3 9 13 0 8 -6 17 -8 20 -4 4 3 13 0 22 -7 13 -11 14
-10 9 5 -6 14 -4 16 7 10 20 -13 49 -13 49 -1 0 6 4 6 11 -1 7 -7 21 -8 41 -2
27 7 28 6 16 -8 -12 -15 -11 -15 9 -5 12 7 35 10 52 8 17 -2 31 1 31 7 0 5 10
2 22 -9 12 -10 18 -13 13 -5 -6 11 -4 13 8 8 10 -3 17 -2 17 4 0 6 6 7 12 3
18 -11 48 -12 48 -2 0 5 6 6 12 2 18 -11 48 -12 48 -2 0 5 5 6 12 2 7 -4 52
-7 100 -6 67 1 87 -2 81 -11 -5 -9 -3 -9 8 -1 18 15 61 25 53 13 -6 -11 -6
-11 34 0 18 6 30 6 27 1 -3 -4 13 -6 35 -4 30 3 39 0 35 -9 -4 -6 0 -4 8 6 10
12 17 14 22 8 8 -13 67 -10 77 4 5 6 8 6 8 -2 0 -8 9 -9 30 -3 17 5 28 5 26 1
-7 -11 108 -7 116 4 5 7 8 6 8 0 0 -6 9 -11 20 -11 11 0 20 5 20 11 0 5 7 1
15 -9 15 -20 15 -20 16 0 0 10 3 14 5 8 5 -11 62 -10 72 1 3 3 14 -3 25 -12
11 -10 17 -12 13 -5 -5 8 0 12 16 12 13 0 18 4 13 8 -6 4 -10 14 -10 22 1 8
-8 24 -19 35 -12 11 -22 26 -24 34 -2 8 -13 23 -24 33 -12 10 -17 18 -12 18 5
0 -2 10 -16 21 -14 11 -18 18 -10 14 13 -6 13 -5 0 7 -8 7 -16 20 -18 28 -2 8
-10 22 -17 30 -7 8 -15 22 -17 30 -2 8 -10 20 -18 27 -8 6 -15 17 -15 25 -1 7
-6 12 -13 11 -6 -2 -9 4 -6 12 4 8 -1 17 -10 21 -9 3 -14 10 -11 15 3 4 -5 15
-17 23 -13 8 -32 31 -42 50 -10 20 -23 33 -27 30 -5 -3 -6 1 -4 9 3 7 -5 25
-17 39 -13 14 -24 32 -26 39 -2 8 -10 18 -18 22 -8 4 -14 14 -14 22 0 7 -6 20
-12 27 -7 7 -19 25 -27 41 -8 15 -18 27 -23 27 -4 0 -8 9 -8 21 0 11 -4 17
-10 14 -5 -3 -10 1 -10 9 0 9 -3 16 -7 16 -5 0 -13 12 -20 26 -7 15 -10 24 -6
20 3 -3 12 -1 20 5 7 6 13 8 13 3 0 -10 51 -11 68 0 6 3 13 2 17 -3 4 -7 15
-7 30 -1 18 7 25 6 25 -3 0 -8 3 -8 9 2 6 9 11 10 15 2 5 -7 13 -8 25 -2 10 6
23 6 31 1 9 -5 19 -5 27 2 8 6 13 6 13 1 0 -5 7 -10 15 -10 8 0 15 3 15 6 0 3
11 6 25 6 14 0 25 -4 25 -9 0 -5 7 -3 15 4 9 7 15 8 15 2 0 -11 18 -11 38 1 7
5 12 3 12 -4 0 -7 6 -5 13 6 10 13 16 15 21 6 4 -6 13 -8 19 -4 18 11 47 11
47 0 0 -5 6 -4 14 2 11 9 16 9 21 0 6 -8 10 -7 16 2 5 8 9 9 9 4 0 -6 9 -11
20 -11 11 0 20 5 20 10 0 6 5 5 12 -2 9 -9 14 -7 24 6 11 14 15 15 23 3 7 -11
9 -11 14 0 4 11 6 11 6 1 1 -8 6 -10 13 -6 18 11 48 12 54 2 3 -5 12 -4 20 3
11 9 14 8 14 -2 0 -8 6 -6 16 7 8 10 13 13 9 7 -3 -7 -1 -13 4 -13 6 0 11 4
11 8 0 7 34 8 50 2 3 -1 9 -2 14 -1 4 1 23 2 42 3 19 1 34 5 34 9 0 4 8 6 18
4 9 -1 23 3 31 9 11 8 13 8 8 0 -4 -7 0 -14 8 -18 8 -3 15 -1 15 3 0 5 11 8
25 6 14 -1 25 1 25 6 0 4 16 6 36 3 21 -2 43 1 52 8 13 10 14 10 8 1 -4 -8 -2
-13 8 -13 8 0 18 5 21 10 4 7 12 7 25 0 13 -7 21 -7 25 0 4 6 14 10 23 8 10
-1 27 4 40 10 12 7 27 10 32 7 6 -3 10 0 10 7 0 11 2 10 9 0 7 -11 9 -11 14 2
4 9 12 13 20 10 8 -3 20 2 27 10 7 9 16 13 21 10 5 -3 9 0 9 5 0 6 7 11 15 11
8 0 15 5 15 11 0 6 7 8 16 5 8 -3 12 -2 9 4 -6 9 8 14 28 11 4 -1 10 6 13 14
3 8 10 12 15 9 5 -3 12 2 15 10 3 9 11 16 18 16 6 0 18 9 26 19 7 11 17 18 22
15 4 -3 11 2 14 10 3 9 12 16 20 16 8 0 11 6 7 17 -4 9 -2 14 3 10 6 -3 18 5
28 18 10 14 22 23 26 20 4 -3 13 9 20 25 7 16 17 27 23 23 5 -3 7 -1 4 4 -4 6
5 23 18 37 14 15 23 32 20 37 -4 5 -1 9 4 9 6 0 10 3 10 8 -1 7 0 11 6 30 2 4
6 17 10 30 4 12 11 22 15 22 4 0 11 15 15 33 4 17 8 34 9 37 1 3 5 11 9 18 5
6 6 12 2 12 -3 0 -1 9 5 20 8 15 8 20 -2 20 -10 0 -10 2 1 9 7 5 10 14 7 20
-4 6 -2 11 4 11 7 0 9 12 6 30 -2 17 0 30 4 30 5 0 9 303 9 680 0 374 -4 680
-8 680 -5 0 -7 12 -5 27 1 15 -3 34 -9 42 -10 12 -9 13 3 6 12 -6 12 -5 3 5
-6 7 -9 19 -6 26 3 8 1 14 -5 14 -5 0 -9 10 -9 23 0 19 -7 43 -30 97 -3 8 -7
18 -7 22 -1 4 -9 16 -18 27 -9 11 -14 22 -10 25 3 4 -3 13 -14 21 -10 8 -15
15 -11 15 4 0 -3 12 -15 26 -13 14 -33 36 -44 49 -12 13 -19 26 -16 29 3 3 -2
6 -12 6 -10 0 -19 11 -22 30 -4 16 -10 27 -15 24 -5 -3 -9 2 -9 11 0 9 -4 14
-9 11 -5 -3 -11 1 -15 9 -3 8 -13 15 -21 15 -9 0 -14 4 -11 8 3 5 -10 15 -29
22 -19 8 -35 20 -35 29 0 8 -3 11 -6 8 -4 -4 -19 2 -34 13 -16 11 -33 20 -39
20 -6 0 -11 5 -11 10 0 6 -8 10 -17 10 -10 0 -27 7 -37 15 -24 18 -40 19 -30
3 5 -8 1 -7 -10 2 -10 8 -25 15 -34 16 -8 2 -19 9 -23 16 -7 10 -9 10 -9 -2 0
-10 -3 -11 -8 -3 -4 6 -27 13 -52 15 -25 2 -48 8 -52 13 -5 6 -8 5 -8 -4 0
-11 -3 -11 -17 0 -15 12 -16 12 -8 -1 8 -13 6 -13 -8 -2 -9 8 -31 13 -49 12
-18 -1 -37 -1 -43 0 -5 1 -27 2 -47 2 -21 0 -38 4 -38 8 0 11 -64 7 -72 -5 -5
-6 -8 -5 -8 4 0 11 -3 11 -15 1 -12 -10 -15 -10 -15 0 0 7 -7 10 -15 6 -8 -3
-15 0 -15 7 0 8 -4 6 -10 -3 -6 -10 -10 -11 -10 -2 0 6 -5 12 -11 12 -5 0 -8
-3 -6 -7 3 -5 -14 -7 -36 -5 -23 1 -61 2 -84 2 -24 -1 -43 4 -43 10 0 5 -5 10
-11 10 -5 0 -7 -5 -3 -12 5 -7 3 -8 -7 -3 -20 13 -49 13 -49 1 0 -7 -3 -7 -8
-1 -4 6 -14 10 -22 10 -8 0 -18 -4 -22 -10 -5 -6 -8 -6 -8 1 0 14 -52 13 -62
-1 -5 -6 -8 -5 -8 3 0 7 -4 10 -10 7 -5 -3 -19 -1 -31 6 -17 9 -23 8 -30 -2
-7 -11 -9 -11 -9 -1 0 10 -5 10 -21 1 -17 -9 -20 -8 -14 2 6 9 3 10 -10 6 -9
-4 -23 -3 -30 3 -10 8 -15 8 -21 -1 -5 -8 -3 -9 6 -4 9 5 11 4 6 -3 -5 -8 -13
-9 -25 -2 -10 5 -21 7 -24 3 -4 -3 -13 0 -21 6 -11 9 -16 9 -22 0 -5 -8 -3 -9
6 -4 9 5 11 4 6 -3 -5 -8 -13 -9 -25 -2 -10 5 -21 7 -24 3 -4 -3 -13 0 -21 6
-11 9 -16 9 -22 0 -5 -8 -3 -9 6 -4 9 5 11 4 6 -3 -5 -8 -13 -9 -25 -2 -10 5
-21 7 -24 3 -4 -3 -13 0 -21 6 -11 9 -16 9 -22 0 -5 -8 -3 -9 6 -4 9 5 11 4 6
-4 -4 -6 -13 -8 -19 -4 -19 12 -97 12 -97 0 0 -5 -10 -2 -22 9 -12 10 -18 14
-14 7 5 -9 -18 -11 -99 -9 -69 3 -105 0 -105 -7 0 -5 -10 -2 -22 9 -12 10 -18
14 -14 7 5 -9 -10 -12 -56 -12 -67 1 -85 -2 -107 -15 -7 -5 -16 -4 -20 1 -7
12 -61 10 -80 -2 -10 -5 -12 -4 -7 3 9 16 -7 15 -22 0 -8 -8 -12 -8 -12 -1 0
5 -13 10 -29 9 -16 -1 -27 -4 -25 -7 2 -4 -10 -9 -27 -11 -20 -3 -33 0 -39 11
-5 9 -10 11 -10 5 0 -7 -7 -15 -16 -18 -8 -3 -13 -2 -10 3 3 5 -5 8 -19 7 -14
0 -25 -5 -25 -9 0 -5 -6 -5 -12 -1 -18 11 -48 12 -48 2 0 -5 -5 -6 -11 -2 -6
3 -15 0 -20 -7 -5 -8 -9 -9 -9 -3 0 7 -11 9 -27 7 -16 -2 -40 -4 -55 -4 -16 1
-28 -4 -28 -11 0 -9 -3 -8 -10 2 -8 12 -11 13 -19 1 -7 -11 -9 -11 -14 0 -4
10 -6 10 -6 2 -1 -9 -8 -10 -26 -3 -18 7 -25 6 -25 -3 0 -8 -4 -7 -10 3 -8 12
-10 12 -10 1 0 -8 -3 -12 -6 -8 -3 3 -17 2 -31 -4 -13 -5 -22 -5 -19 -1 3 5
-5 7 -17 6 -12 -1 -22 -3 -22 -4 0 -2 -67 -17 -107 -23 -9 -2 -24 -10 -34 -18
-11 -8 -15 -9 -10 -2 5 9 2 11 -8 7 -9 -3 -16 -10 -16 -15 0 -5 -3 -8 -7 -7
-20 4 -114 -42 -108 -52 3 -6 0 -7 -8 -4 -8 3 -22 -2 -31 -11 -9 -9 -16 -13
-16 -9 0 4 -8 -3 -19 -14 -10 -12 -23 -22 -30 -22 -6 0 -11 -4 -11 -10 0 -5
-8 -10 -17 -10 -9 0 -14 -2 -11 -6 3 -3 -14 -26 -38 -51 -25 -25 -47 -56 -50
-69 -3 -13 -9 -22 -14 -19 -6 4 -57 -47 -52 -52 7 -9 0 -23 -12 -23 -9 0 -13
-9 -12 -25 2 -13 0 -22 -4 -20 -8 5 -24 -24 -22 -37 1 -5 -4 -8 -10 -8 -9 0
-8 -4 2 -10 11 -7 11 -10 2 -10 -7 0 -11 -4 -8 -9 3 -5 -1 -12 -10 -15 -9 -4
-14 -13 -10 -21 3 -8 1 -15 -5 -15 -6 0 -8 -4 -4 -9 3 -5 1 -13 -5 -16 -8 -5
-7 -11 1 -21 9 -11 8 -15 -4 -20 -9 -3 -13 -12 -11 -19 8 -19 -12 -28 -59 -26
-64 3 -67 4 -67 14 0 5 -7 4 -15 -3 -12 -10 -15 -10 -15 0 0 10 -4 10 -16 -1
-13 -10 -17 -10 -25 2 -7 11 -9 11 -9 0 0 -10 -3 -11 -14 -2 -11 9 -16 9 -21
0 -6 -8 -10 -7 -16 2 -7 11 -9 11 -9 -1 0 -13 -1 -13 -10 0 -8 12 -10 12 -10
1 0 -10 -3 -11 -13 -2 -10 8 -17 7 -25 -1 -9 -9 -12 -9 -12 1 0 10 -4 10 -12
3 -17 -13 -60 -18 -75 -9 -8 5 -13 4 -13 -2 0 -6 -4 -11 -10 -11 -5 0 -10 7
-10 15 0 8 -5 15 -11 15 -5 0 -7 4 -4 10 6 9 -24 119 -35 130 -3 3 -6 12 -8
20 -2 8 -8 17 -13 18 -5 2 -7 8 -3 13 3 5 0 9 -5 9 -6 0 -10 3 -9 8 4 13 -13
52 -23 52 -5 0 -9 7 -9 15 0 8 -5 15 -11 15 -5 0 -8 4 -5 9 3 5 -1 11 -9 15
-8 3 -15 13 -15 21 0 9 -4 13 -10 10 -5 -3 -10 -1 -10 4 0 18 -125 153 -134
144 -3 -3 -8 2 -12 11 -3 9 -12 16 -20 16 -8 0 -14 5 -14 11 0 5 -4 8 -9 5 -5
-3 -12 1 -15 10 -3 8 -10 12 -16 9 -6 -3 -13 1 -16 9 -3 9 -10 14 -14 11 -5
-3 -15 1 -23 9 -8 8 -17 12 -21 9 -3 -4 -6 -1 -6 6 0 7 -6 11 -12 9 -7 -3 -19
1 -26 9 -8 7 -18 10 -23 7 -6 -3 -17 2 -24 12 -10 13 -14 15 -15 5 0 -10 -3
-11 -13 -2 -8 6 -17 8 -20 4 -4 -3 -7 -2 -7 3 0 5 -12 11 -27 12 -42 4 -57 7
-70 15 -6 4 -14 3 -17 -1 -6 -11 -36 -9 -55 2 -7 5 -43 10 -80 12 -36 1 -78 4
-93 7 -17 2 -28 0 -28 -7 0 -7 -3 -7 -8 1 -8 13 -41 11 -64 -3 -7 -4 -8 -3 -4
4 8 13 6 13 -34 16 -14 0 -31 5 -39 10 -10 7 -12 6 -6 -4 5 -8 3 -11 -6 -8 -8
3 -24 1 -36 -3 -12 -5 -25 -4 -28 0 -3 5 -17 8 -33 6 -15 -2 -33 2 -41 9 -12
9 -13 8 -6 -4 8 -13 6 -13 -8 -2 -9 8 -21 11 -27 7 -6 -4 -17 -2 -25 5 -10 8
-15 8 -21 -1 -5 -8 -3 -9 6 -4 9 5 11 4 6 -4 -5 -7 -12 -9 -19 -3 -18 13 -59
13 -51 0 5 -7 2 -8 -7 -2 -16 10 -47 14 -136 17 -35 1 -63 5 -63 10 0 4 -6 5
-12 0 -17 -10 -29 -11 -54 -2 -12 4 -25 5 -28 1 -12 -12 -48 -13 -40 0 5 7 3
8 -7 2 -20 -12 -38 -14 -45 -3 -3 5 -10 7 -15 3 -20 -12 -61 -15 -54 -3 5 8 1
8 -15 -1 -15 -8 -25 -9 -33 -1 -5 5 -17 7 -26 2 -20 -9 -32 -8 -50 3 -9 6 -12
5 -8 0 3 -6 -11 -10 -33 -10 -21 0 -36 4 -33 9 3 5 -4 4 -16 -3 -16 -8 -26 -8
-35 -1 -7 6 -15 8 -18 5 -3 -2 -18 -7 -33 -10 -18 -3 -24 -1 -20 7 5 8 1 8
-15 -1 -15 -8 -25 -9 -33 -1 -6 6 -17 7 -26 2 -21 -12 -32 -11 -55 1 -16 9
-18 7 -13 -6z m61 -377 c5 8 13 8 27 1 14 -8 19 -7 19 2 0 10 3 9 9 -1 8 -12
12 -12 24 -2 12 9 16 9 19 0 3 -9 9 -9 25 0 14 7 24 8 28 1 3 -5 11 -10 16
-10 6 0 7 5 3 11 -4 8 0 8 15 0 16 -9 21 -9 21 1 0 10 3 9 9 -1 8 -12 12 -12
24 -2 12 9 16 9 19 -1 4 -10 8 -10 21 1 10 7 17 9 17 4 0 -5 9 -9 20 -10 12
-1 18 3 14 9 -4 6 2 6 15 -1 16 -9 21 -9 21 1 0 10 3 9 9 -1 8 -12 12 -12 24
-2 12 9 16 9 19 -1 4 -10 8 -10 21 1 10 7 17 9 17 4 0 -5 9 -9 20 -10 12 -1
18 3 14 9 -4 6 2 6 15 -1 16 -9 21 -9 21 1 0 10 3 9 9 -1 8 -12 12 -12 24 -2
12 9 16 9 19 -1 4 -10 8 -10 21 1 10 7 17 9 17 4 0 -5 9 -9 20 -10 13 -1 18 2
14 9 -5 7 -2 8 6 3 7 -5 27 -9 44 -11 17 -1 46 -5 64 -8 24 -5 32 -3 26 5 -4
8 -3 9 4 5 20 -12 51 -15 57 -5 4 5 12 6 18 2 7 -4 46 -8 87 -9 41 -1 75 -3
75 -4 0 -3 146 -12 202 -12 28 -1 40 -5 36 -12 -3 -6 0 -5 7 1 11 10 17 10 29
0 12 -10 13 -9 6 3 -8 13 -7 13 8 1 9 -7 17 -10 17 -6 0 4 8 1 17 -6 10 -8 14
-9 10 -2 -5 8 1 11 20 8 16 -2 41 -4 56 -4 16 -1 26 -4 24 -8 -3 -5 5 -8 18
-8 13 0 21 3 19 6 -2 3 10 6 26 5 17 -1 30 -5 30 -10 0 -5 8 -2 17 5 11 10 14
10 9 2 -6 -12 5 -18 27 -14 4 0 7 -3 7 -9 0 -5 7 -10 16 -10 24 0 95 -41 125
-72 15 -15 29 -24 33 -20 4 3 4 -2 0 -13 -6 -15 -4 -17 11 -11 11 4 16 4 13 0
-4 -3 9 -22 29 -40 20 -19 33 -34 30 -34 -4 0 2 -16 13 -36 11 -19 18 -39 15
-45 -4 -5 -1 -9 6 -9 6 0 9 -8 6 -20 -3 -11 -2 -22 3 -25 4 -2 6 -16 5 -30 -2
-14 1 -25 7 -25 6 0 4 -7 -3 -17 -12 -14 -12 -16 0 -8 11 6 13 4 8 -7 -3 -9
-3 -19 1 -23 4 -4 8 -25 8 -48 3 -76 4 -78 16 -71 7 5 8 3 2 -7 -11 -18 -5
-72 10 -81 6 -5 7 -8 1 -8 -13 0 -13 -49 -1 -69 7 -10 6 -12 -4 -6 -10 6 -11
4 -4 -6 5 -8 9 -25 10 -39 0 -14 3 -30 6 -36 4 -5 3 -16 -2 -24 -5 -9 -4 -20
3 -29 8 -10 9 -13 0 -8 -8 5 -10 -4 -6 -31 2 -20 6 -51 7 -69 2 -17 6 -35 9
-40 3 -5 2 -15 -3 -23 -5 -8 -5 -22 1 -32 6 -12 6 -18 0 -18 -5 0 -8 -9 -6
-20 2 -11 1 -20 -3 -20 -9 0 -8 -73 2 -88 4 -7 3 -12 -2 -12 -5 0 -8 -19 -6
-42 1 -23 0 -46 -3 -52 -11 -18 -11 -86 1 -86 7 0 7 -3 1 -8 -12 -9 -17 -26
-19 -72 -1 -19 -5 -40 -8 -46 -4 -6 -5 -25 -3 -43 2 -17 0 -29 -5 -26 -5 3 -7
-10 -6 -30 2 -19 0 -35 -5 -35 -4 0 -6 -9 -4 -20 3 -14 0 -18 -8 -13 -16 10
-39 10 -54 0 -6 -4 -14 -3 -18 4 -6 8 -10 7 -16 -2 -7 -11 -9 -11 -9 -1 0 10
-5 10 -20 2 -11 -6 -20 -7 -20 -3 0 10 -41 10 -58 -1 -7 -4 -12 -2 -12 4 0 8
-6 8 -20 0 -11 -6 -20 -7 -20 -2 0 10 -30 9 -47 -1 -6 -4 -15 -2 -19 4 -4 8
-9 7 -15 -2 -7 -11 -9 -11 -9 -1 0 10 -5 10 -20 2 -15 -8 -20 -8 -20 1 0 8 -4
8 -15 -1 -8 -7 -15 -8 -15 -3 0 11 -29 11 -47 0 -6 -4 -15 -2 -19 4 -4 8 -9 7
-15 -2 -7 -11 -9 -11 -9 -1 0 10 -5 10 -20 2 -11 -6 -20 -7 -20 -3 0 10 -41
10 -58 -1 -7 -4 -12 -2 -12 4 0 8 -6 8 -20 0 -11 -6 -20 -7 -20 -2 0 11 -30 9
-49 -2 -8 -5 -16 -4 -20 3 -6 8 -15 9 -34 2 -15 -6 -27 -7 -27 -3 0 10 -42 8
-58 -2 -7 -4 -12 -2 -12 4 0 8 -6 8 -20 0 -11 -6 -20 -7 -20 -2 0 11 -30 9
-49 -2 -8 -5 -16 -4 -20 3 -6 8 -15 9 -34 2 -15 -6 -27 -7 -27 -2 0 11 -19 9
-39 -3 -8 -5 -16 -4 -20 1 -7 12 -40 11 -60 -1 -7 -5 -16 -4 -20 1 -7 12 -40
11 -60 -1 -7 -5 -16 -4 -20 1 -7 12 -40 11 -60 -1 -7 -5 -16 -4 -20 1 -7 12
-40 11 -60 -1 -7 -5 -16 -4 -20 1 -7 12 -40 11 -60 -1 -7 -5 -16 -4 -20 1 -7
12 -40 11 -60 -1 -7 -5 -16 -4 -20 1 -7 12 -40 11 -60 -1 -7 -5 -16 -4 -20 1
-7 10 -62 10 -79 -1 -7 -4 -12 -3 -12 3 0 7 -8 7 -25 1 -14 -5 -25 -6 -25 -1
0 10 -26 9 -36 -2 -4 -3 -15 -2 -25 4 -11 5 -19 6 -19 1 0 -4 -9 -8 -20 -8
-11 0 -20 3 -20 6 0 8 -44 5 -58 -4 -7 -4 -12 -3 -12 3 0 7 -8 7 -25 1 -18 -7
-25 -6 -25 3 0 8 -4 7 -10 -3 -7 -10 -10 -11 -10 -2 0 9 -4 10 -19 0 -18 -11
-18 -12 1 -45 11 -18 24 -33 29 -33 5 0 9 -7 9 -16 0 -8 4 -12 10 -9 5 3 7 0
4 -8 -3 -8 3 -21 13 -28 10 -8 19 -20 21 -28 1 -7 9 -20 17 -28 8 -8 15 -21
15 -29 0 -8 5 -12 10 -9 6 3 10 -1 10 -9 0 -9 5 -16 10 -16 6 0 10 -5 10 -11
0 -6 7 -17 15 -26 8 -8 13 -19 10 -24 -4 -5 -1 -9 4 -9 6 0 11 -9 11 -20 0
-11 5 -20 10 -20 6 0 10 -7 10 -15 0 -9 7 -18 15 -21 8 -4 12 -10 9 -15 -3 -5
-1 -9 5 -9 6 0 8 -6 5 -14 -4 -9 -15 -13 -31 -10 -17 3 -22 1 -17 -7 5 -8 3
-9 -7 -3 -8 5 -25 9 -39 10 -14 1 -38 5 -54 9 -23 6 -27 5 -21 -6 7 -11 6 -12
-6 -3 -8 6 -24 10 -36 9 -13 -1 -23 3 -23 9 0 6 -4 5 -9 -3 -7 -10 -13 -11
-31 -1 -20 11 -22 10 -16 -5 5 -13 3 -15 -6 -8 -7 5 -34 9 -60 9 -26 -1 -44 3
-41 8 4 5 -3 7 -15 4 -13 -4 -22 -1 -23 5 0 8 -2 8 -5 2 -5 -13 -113 -8 -130
6 -6 5 -14 6 -18 2 -9 -9 -56 -12 -56 -3 0 9 -32 6 -49 -4 -8 -5 -16 -4 -21 3
-4 8 -29 12 -66 11 -32 -1 -63 -1 -69 0 -5 1 -13 2 -17 1 -5 0 -8 4 -8 9 0 7
-6 7 -20 0 -13 -7 -20 -7 -20 -1 0 7 -9 7 -25 1 -14 -5 -25 -6 -25 -1 0 4 -11
7 -25 6 -14 -2 -25 2 -25 8 0 8 -3 7 -9 -2 -6 -9 -11 -10 -15 -2 -4 6 -11 9
-15 7 -4 -3 -17 4 -29 14 -12 11 -28 20 -37 20 -9 0 -13 5 -10 10 3 6 -3 10
-15 10 -12 0 -18 5 -15 10 3 6 1 10 -4 10 -23 0 -26 2 -38 23 -7 12 -12 18
-13 12 0 -5 -9 3 -19 18 -10 16 -20 27 -23 25 -2 -2 -12 5 -22 15 -10 9 -14
17 -9 17 4 0 0 5 -9 11 -10 5 -18 16 -18 24 0 8 -8 20 -19 27 -10 7 -17 21
-15 31 1 9 -2 17 -7 17 -6 0 -7 5 -4 10 3 6 1 10 -6 10 -7 0 -10 13 -7 34 2
20 0 32 -5 29 -6 -3 -8 8 -5 25 2 17 1 29 -3 27 -3 -3 -6 8 -6 23 0 15 -3 40
-8 56 -6 23 -5 27 6 21 11 -7 12 -6 3 6 -5 8 -10 23 -10 34 1 11 -3 23 -7 26
-5 3 -9 25 -10 47 -1 23 -6 42 -10 42 -5 0 -5 6 0 13 11 17 11 30 -1 46 -8 11
-8 13 2 7 15 -9 15 -1 1 26 -8 16 -8 19 1 13 9 -6 9 -2 0 14 -6 12 -9 27 -7
34 2 7 0 20 -5 31 -7 13 -7 16 1 12 15 -10 14 7 -1 22 -9 9 -9 12 3 12 12 0
12 2 -1 10 -8 5 -10 10 -4 10 7 0 10 13 7 33 -5 37 -5 50 -1 92 2 17 -1 36 -6
43 -5 8 -4 12 4 12 10 0 10 3 0 15 -7 8 -8 15 -3 15 10 0 9 81 -1 107 -3 7 -2
13 2 13 5 0 8 10 8 23 0 12 4 32 8 45 5 14 3 22 -5 22 -8 0 -8 5 2 17 12 15
12 16 -1 8 -13 -8 -13 -6 -2 7 10 12 11 22 3 35 -5 11 -6 25 -1 33 5 8 6 18 4
22 -3 4 -1 8 3 8 5 0 9 8 10 18 8 95 12 115 24 123 10 6 10 9 2 9 -9 0 -11 11
-7 33 3 17 6 47 7 64 1 18 6 33 11 33 4 0 6 12 3 26 -3 16 0 28 9 31 8 3 14
11 14 19 0 8 5 14 11 14 5 0 8 4 4 9 -3 5 2 16 10 24 8 9 15 21 15 27 0 6 7
13 15 16 8 4 12 10 9 15 -3 5 -1 9 5 9 6 0 29 18 52 40 23 22 48 40 55 40 7 0
17 7 22 16 5 9 13 16 18 16 5 0 8 3 7 7 -1 4 4 8 12 8 8 0 11 -5 8 -11 -4 -6
3 -2 15 8 12 11 22 15 22 10 0 -5 4 -3 9 5 8 13 12 13 27 0 16 -13 17 -12 11
5 -6 15 -5 16 6 8 7 -6 26 -8 42 -6 17 3 45 5 63 5 18 0 30 3 28 7 -6 9 67 8
82 -2 6 -3 14 -1 18 5 5 8 3 9 -7 4 -8 -5 -11 -4 -6 1 12 12 97 12 97 0 0 -8
3 -8 8 0 7 11 39 16 114 17 24 0 35 4 31 11 -5 7 -2 7 8 0 16 -13 57 -13 78 0
11 7 12 6 6 -5 -7 -11 -6 -12 7 -2 8 7 18 10 22 6 4 -4 11 -1 16 7 6 8 10 10
10 4 0 -5 15 -9 32 -8 18 1 39 -3 47 -9 11 -9 13 -9 8 0 -4 6 -3 14 3 18 5 3
10 3 10 -2 0 -4 27 -8 60 -8 33 -1 60 2 60 6 0 5 9 6 20 4 11 -2 20 2 20 8 0
8 3 8 9 -2 6 -9 11 -10 15 -2z m4391 -6 c11 0 23 5 27 11 6 8 8 8 8 0 0 -12
88 -14 107 -1 6 4 14 3 17 -2 7 -11 25 -9 45 3 9 6 12 5 8 -1 -4 -6 9 -10 33
-10 26 0 37 4 33 11 -5 8 -3 8 8 0 19 -15 112 -16 103 -2 -5 7 -2 8 7 2 22
-13 43 -14 51 -1 5 8 8 8 8 1 0 -6 11 -11 25 -11 14 0 25 5 25 11 0 7 3 8 8 1
10 -15 122 -16 122 -1 0 7 3 7 8 1 8 -11 36 -16 99 -17 25 -1 40 -5 36 -11 -4
-6 -1 -7 8 -1 19 12 51 16 45 6 -3 -5 1 -9 9 -9 8 0 12 3 10 6 -2 4 27 7 65 7
38 0 66 -4 64 -8 -3 -4 5 -6 18 -4 13 2 33 -1 46 -5 13 -5 21 -5 18 0 -8 12
78 8 86 -5 7 -10 40 -10 86 0 12 3 22 0 22 -6 0 -7 6 -6 15 2 8 7 15 8 15 3 0
-5 19 -10 43 -11 66 -4 140 -12 149 -18 4 -3 8 -1 8 5 0 7 28 8 38 1 1 -2 5
-3 10 -4 4 -1 13 -5 20 -9 7 -5 12 -3 13 5 0 10 2 10 6 0 2 -6 9 -10 14 -6 5
3 9 0 9 -5 0 -6 9 -11 21 -11 11 0 27 -7 36 -15 8 -8 19 -13 24 -10 5 4 9 1 9
-4 0 -6 6 -11 13 -11 7 0 19 -9 27 -20 8 -11 19 -20 26 -20 6 0 17 -11 24 -25
7 -14 15 -23 18 -20 6 6 32 -21 32 -34 0 -6 5 -11 10 -11 6 0 10 -7 10 -15 0
-8 5 -15 11 -15 5 0 7 -4 4 -10 -3 -5 -1 -10 5 -10 6 0 8 -4 5 -10 -3 -5 -2
-10 3 -10 5 0 9 -7 10 -15 1 -8 3 -22 4 -30 1 -8 5 -15 10 -15 5 0 6 -5 3 -10
-4 -6 -1 -18 6 -26 10 -13 10 -17 -2 -25 -8 -5 -9 -9 -3 -9 7 0 14 -9 17 -20
3 -11 1 -18 -4 -14 -5 3 -9 0 -9 -5 0 -6 4 -11 8 -11 5 0 9 -6 9 -12 0 -7 4
-21 8 -30 4 -12 3 -18 -5 -18 -9 0 -10 -3 -1 -13 6 -8 8 -17 4 -20 -3 -4 -2
-7 3 -7 5 0 10 -13 10 -30 1 -17 -2 -27 -8 -24 -6 4 -5 -3 1 -15 9 -16 9 -21
-1 -21 -9 0 -10 -3 -2 -8 6 -4 11 -14 11 -22 0 -9 3 -28 7 -44 5 -21 4 -26 -6
-20 -11 6 -11 5 0 -8 9 -12 10 -18 2 -23 -8 -5 -8 -11 1 -21 6 -8 8 -14 4 -14
-4 0 -1 -8 6 -17 12 -15 12 -16 -3 -10 -15 5 -16 3 -3 -32 10 -30 11 -42 2
-51 -9 -9 -9 -11 -1 -7 8 5 11 -11 9 -55 -2 -35 1 -73 6 -87 9 -22 8 -23 -8
-10 -9 8 -14 9 -10 2 13 -21 15 -73 3 -73 -6 0 -3 -5 7 -11 12 -7 15 -15 9
-22 -5 -7 -9 -19 -9 -27 -1 -24 -11 -69 -19 -81 -4 -7 -3 -9 3 -6 12 8 10 -54
-3 -74 -4 -8 -3 -9 5 -5 8 6 10 -1 5 -26 -3 -18 -7 -39 -7 -45 0 -7 -4 -13 -8
-13 -4 0 -6 -8 -4 -17 1 -10 8 -17 14 -15 7 1 4 -10 -6 -25 -14 -21 -15 -25
-3 -18 12 7 13 6 4 -6 -6 -8 -11 -29 -10 -47 0 -17 -3 -32 -7 -32 -5 0 -6 -4
-2 -9 3 -5 0 -13 -6 -17 -8 -5 -7 -9 2 -14 9 -6 10 -12 2 -22 -6 -7 -13 -35
-15 -61 -3 -27 -9 -52 -14 -55 -5 -4 -9 -17 -8 -29 1 -12 -3 -20 -7 -17 -5 3
-9 -1 -9 -9 0 -8 -7 -20 -15 -27 -8 -7 -12 -16 -9 -21 3 -5 -2 -9 -10 -9 -10
0 -13 -6 -9 -17 4 -10 2 -14 -5 -9 -6 3 -13 -3 -17 -14 -3 -11 -9 -19 -13 -17
-10 3 -51 -40 -44 -47 3 -3 -3 -6 -14 -6 -22 0 -56 -34 -46 -46 4 -4 2 -4 -5
0 -6 3 -22 -4 -34 -16 -12 -13 -19 -17 -14 -10 6 11 3 11 -16 0 -13 -7 -27
-17 -30 -22 -4 -5 -12 -5 -18 -2 -6 4 -17 4 -23 -1 -7 -4 -20 -8 -28 -8 -8 0
-21 -4 -29 -9 -7 -5 -16 -5 -20 0 -7 11 -32 11 -48 1 -8 -5 -13 -3 -13 3 0 8
-6 8 -20 0 -12 -6 -30 -8 -40 -5 -13 4 -20 2 -20 -7 0 -10 -3 -9 -10 2 -5 8
-10 10 -10 4 0 -6 -13 -9 -30 -6 -20 3 -30 0 -30 -8 0 -10 -3 -10 -15 0 -12
10 -18 10 -30 0 -12 -10 -15 -10 -15 0 0 10 -3 10 -15 0 -11 -9 -15 -9 -15 -1
0 9 -5 9 -20 1 -14 -8 -20 -8 -20 0 0 6 -5 8 -12 4 -14 -9 -50 -14 -113 -15
-27 -1 -58 -5 -67 -10 -12 -7 -18 -6 -18 1 0 6 -5 8 -12 3 -18 -10 -42 -10
-50 1 -4 6 -12 5 -21 -3 -11 -8 -17 -9 -22 -1 -3 6 -12 7 -18 3 -19 -11 -58
-13 -51 -1 4 7 0 7 -12 0 -11 -5 -27 -8 -36 -7 -10 2 -18 -1 -18 -5 0 -9 -46
-7 -56 2 -3 4 -18 3 -33 -2 -16 -4 -32 -5 -37 -1 -12 8 -17 34 -5 27 5 -4 12
3 16 14 3 11 10 20 15 20 4 0 11 11 14 25 4 14 11 23 17 20 5 -4 9 -3 8 2 -4
22 3 41 21 61 12 12 18 22 14 22 -4 0 3 9 15 19 12 11 22 23 23 28 0 4 4 7 10
5 5 -1 7 2 4 7 -4 5 -2 12 4 16 6 4 8 10 5 15 -3 4 2 10 10 14 8 3 15 12 15
21 0 8 5 15 12 15 6 0 9 3 5 6 -3 3 3 14 14 25 11 11 17 25 13 31 -4 6 -3 8 4
4 6 -3 13 3 17 14 3 11 11 20 17 20 6 0 6 6 -2 15 -10 12 -16 13 -26 4 -10 -8
-14 -8 -14 0 0 13 -22 10 -32 -4 -5 -6 -8 -6 -8 2 0 12 -37 12 -58 -1 -7 -4
-12 -2 -12 4 0 8 -6 7 -21 -1 -16 -8 -20 -8 -14 1 6 9 2 9 -14 1 -11 -7 -21
-8 -21 -3 0 10 -30 9 -48 -2 -6 -4 -12 -2 -12 3 0 13 -22 10 -32 -4 -5 -6 -8
-6 -8 2 0 12 -37 12 -58 -1 -7 -4 -12 -2 -12 4 0 8 -6 7 -21 -1 -16 -8 -20 -8
-14 1 6 9 2 9 -14 1 -12 -7 -21 -8 -21 -2 0 10 -19 9 -37 -2 -8 -5 -13 -3 -13
3 0 7 -6 8 -19 0 -14 -7 -22 -7 -26 0 -5 8 -12 7 -22 -1 -10 -9 -17 -9 -21 -2
-8 11 -41 11 -60 -1 -7 -4 -12 -2 -12 4 0 7 -6 8 -19 0 -14 -7 -22 -7 -26 0
-5 8 -12 7 -22 -1 -10 -9 -17 -9 -21 -2 -8 11 -41 11 -60 -1 -7 -4 -12 -2 -12
4 0 7 -6 8 -19 0 -14 -7 -22 -7 -26 0 -5 8 -12 7 -22 -1 -10 -9 -17 -9 -21 -2
-8 11 -41 11 -60 -1 -7 -4 -12 -2 -12 4 0 7 -6 8 -19 0 -14 -7 -22 -7 -26 0
-5 8 -12 7 -22 -1 -9 -8 -17 -9 -21 -3 -8 12 -52 12 -70 0 -7 -4 -12 -2 -12 6
0 9 -3 9 -10 -2 -9 -13 -10 -13 -10 0 0 13 -1 13 -10 0 -6 -9 -10 -10 -10 -3
0 12 -37 12 -58 -1 -7 -4 -12 -2 -12 4 0 8 -6 7 -21 -1 -16 -8 -20 -8 -14 1 6
9 2 9 -14 1 -11 -7 -21 -8 -21 -3 0 10 -30 9 -48 -2 -7 -4 -12 -2 -12 6 0 9
-3 9 -10 -2 -9 -13 -10 -13 -10 0 0 13 -1 13 -10 0 -6 -9 -10 -10 -10 -3 0 12
-37 12 -58 -1 -7 -4 -12 -2 -12 5 0 8 -4 8 -15 -1 -11 -9 -15 -9 -15 -1 0 9
-5 9 -20 1 -11 -6 -20 -7 -20 -3 0 5 -12 8 -27 7 -16 -1 -28 -3 -28 -4 0 -1
-10 -3 -22 -4 -13 -2 -23 1 -23 5 0 9 -41 6 -58 -5 -7 -4 -12 -2 -12 5 0 8 -4
8 -15 -1 -11 -9 -15 -9 -15 -1 0 9 -5 9 -20 1 -11 -6 -20 -7 -20 -3 0 5 -12 8
-27 7 -16 -1 -28 -3 -28 -4 0 -1 -10 -3 -22 -4 -13 -2 -23 1 -23 5 0 9 -41 6
-58 -5 -7 -4 -12 -2 -12 5 0 8 -4 8 -15 -1 -12 -10 -15 -10 -15 0 0 10 -3 10
-14 1 -10 -8 -16 -9 -21 -1 -3 6 -10 8 -14 6 -4 -3 -13 4 -20 16 -7 11 -8 17
-3 14 5 -3 10 5 10 19 0 14 -4 23 -7 20 -4 -2 -6 9 -5 26 1 16 -2 31 -7 34 -4
3 -5 13 -2 22 5 12 3 14 -8 8 -12 -7 -12 -6 -1 7 9 12 10 18 2 23 -8 5 -8 11
1 21 8 10 8 14 0 14 -6 0 -10 3 -10 8 5 28 -3 122 -9 118 -9 -5 -7 52 1 61 3
3 2 16 -3 29 -6 16 -6 24 1 24 6 0 6 6 0 19 -6 10 -8 21 -5 23 2 3 0 17 -5 32
-8 19 -7 26 2 26 8 0 7 4 -3 10 -9 6 -10 10 -3 10 8 0 9 9 3 30 -6 21 -5 30 3
30 7 0 6 4 -3 10 -9 6 -10 10 -3 10 8 0 9 9 3 30 -5 17 -6 30 -2 30 4 0 6 19
6 42 -1 24 3 49 8 56 7 8 7 12 -1 12 -7 0 -9 5 -4 13 11 17 10 31 -1 39 -6 4
-5 13 3 22 11 13 11 16 0 16 -9 0 -10 3 -4 8 6 4 10 24 10 44 0 21 4 38 8 38
4 0 4 7 -1 17 -6 9 -6 29 -2 45 5 15 6 28 3 28 -3 0 0 6 6 14 8 10 9 16 1 21
-6 3 -8 11 -5 16 4 5 8 17 10 26 2 10 7 27 11 37 6 15 4 17 -7 11 -8 -5 -5 1
5 13 14 17 16 22 5 22 -12 0 -12 2 0 9 7 5 11 13 7 19 -3 5 1 15 9 22 8 7 12
17 8 24 -9 14 -10 66 -2 60 13 -8 17 24 6 36 -8 9 -8 11 -1 7 7 -4 17 7 25 26
7 17 19 36 26 40 7 5 11 12 8 18 -4 5 -1 9 5 9 15 0 41 26 33 34 -4 3 1 6 11
6 9 0 14 5 11 10 -3 6 -1 10 5 10 15 0 41 26 33 34 -7 6 12 10 37 6 8 -1 12 2
8 6 -10 9 50 46 63 39 5 -4 9 -1 9 5 0 6 5 8 10 5 6 -3 10 -1 10 5 0 7 7 10
15 6 8 -3 15 -2 15 3 0 4 18 6 41 4 23 -2 47 1 55 8 11 9 14 9 14 -1 0 -8 4
-9 13 -3 6 5 22 8 35 7 12 0 22 2 22 7 0 4 14 4 30 -1 18 -5 28 -5 25 1 -3 5
8 7 24 5 17 -2 31 0 31 3 0 11 54 7 62 -4 5 -6 8 -6 8 1 0 6 11 10 25 9 14 -2
25 0 25 4 0 5 33 8 73 8 39 0 98 2 130 6 31 3 55 2 53 -2 -3 -4 1 -8 9 -8 8 0
12 3 10 7 -2 4 13 7 35 7 24 0 37 -4 33 -10 -4 -6 -1 -7 8 -1 12 7 52 12 122
15 9 0 17 6 17 12 0 8 2 9 8 1 4 -6 16 -11 27 -11z m-1895 -723 c8 5 21 5 32
-1 13 -7 18 -6 18 3 0 9 3 9 10 -2 8 -12 10 -12 10 -1 0 10 3 11 13 2 8 -6 23
-9 35 -6 12 2 22 0 22 -4 0 -4 7 -8 15 -9 8 -1 22 -3 30 -4 8 -1 17 -8 19 -15
4 -9 1 -11 -6 -7 -7 5 -8 3 -3 -6 4 -7 8 -51 8 -97 0 -63 -3 -87 -14 -94 -9
-6 -10 -9 -2 -9 9 0 10 -7 4 -23 -5 -14 -5 -30 0 -40 7 -12 6 -17 -3 -17 -9 0
-9 -3 2 -10 13 -9 13 -11 0 -20 -8 -5 -10 -10 -5 -10 6 0 10 -11 10 -25 0 -14
-4 -25 -9 -25 -5 0 -2 -8 5 -17 12 -15 12 -16 -1 -8 -12 6 -13 5 -3 -5 9 -10
10 -17 2 -27 -9 -10 -8 -13 1 -13 9 0 10 -3 1 -13 -6 -8 -8 -17 -4 -21 11 -11
10 -46 -1 -46 -7 0 -7 -3 -1 -8 12 -8 15 -35 16 -124 1 -38 5 -68 9 -68 11 0
7 -33 -5 -42 -6 -5 -5 -8 3 -8 15 0 12 -31 -3 -42 -6 -5 -6 -8 2 -8 6 0 12 -8
12 -17 2 -52 6 -73 12 -73 9 0 6 -20 -4 -37 -4 -6 -3 -14 3 -18 16 -10 12 -19
-15 -32 -14 -6 -27 -7 -31 -2 -3 5 -10 9 -15 9 -6 0 -7 -5 -3 -11 5 -8 1 -8
-14 0 -14 8 -23 8 -27 1 -5 -8 -11 -7 -21 1 -11 9 -14 8 -14 -2 0 -12 -2 -12
-9 -1 -9 16 -20 15 -39 -1 -9 -7 -16 -7 -20 0 -8 11 -41 11 -59 0 -6 -4 -15
-2 -19 4 -4 8 -9 7 -15 -2 -6 -9 -9 -10 -9 -2 0 12 -18 12 -39 -1 -8 -5 -16
-4 -20 3 -4 6 -17 9 -28 7 -12 -3 -24 1 -27 10 -3 8 -2 14 3 14 12 0 10 34 -3
42 -7 5 -7 8 -1 8 11 0 17 42 18 118 0 23 4 42 8 42 4 0 6 25 5 55 -1 30 2 55
7 55 5 0 3 8 -4 17 -9 10 -9 14 -2 10 14 -9 13 69 -1 92 -6 10 -5 12 3 7 14
-9 11 30 -3 53 -6 10 -5 12 2 7 8 -5 12 1 11 16 0 37 7 84 16 98 5 8 4 11 -2
7 -6 -4 -13 0 -17 8 -3 8 0 17 6 21 7 5 8 2 3 -6 -5 -9 -4 -11 4 -6 6 4 8 13
4 19 -4 6 -6 24 -5 40 1 15 -2 36 -8 47 -8 15 -8 20 2 20 8 0 9 3 3 8 -16 11
-14 212 2 212 7 0 13 4 13 8 0 5 13 8 30 7 16 -1 27 2 24 7 -3 5 6 7 20 4 16
-3 26 0 26 7 0 9 2 9 8 0 5 -8 13 -9 22 -3z m-1370 -1209 c0 11 2 11 8 1 5 -7
15 -10 24 -7 16 6 78 -45 78 -65 0 -6 4 -9 8 -6 4 2 9 -5 9 -16 1 -12 8 -25
15 -29 7 -5 9 -9 5 -9 -5 0 0 -16 12 -36 12 -19 17 -32 11 -29 -5 3 -10 1 -10
-4 0 -6 5 -11 10 -11 5 0 9 -3 8 -7 -2 -8 22 -66 48 -114 7 -14 11 -29 7 -33
-3 -3 -1 -6 6 -6 7 0 10 -4 6 -9 -3 -5 1 -16 9 -24 8 -8 12 -17 9 -21 -4 -3
-1 -6 5 -6 6 0 9 -7 6 -15 -4 -8 -1 -15 5 -15 6 0 11 -11 11 -25 0 -14 5 -25
10 -25 6 0 10 -9 10 -19 0 -11 5 -23 10 -26 6 -4 8 -10 5 -15 -3 -5 -1 -11 5
-15 6 -4 8 -11 5 -16 -4 -5 -2 -9 3 -9 6 0 13 -7 16 -16 4 -10 2 -13 -6 -8
-12 8 -7 -4 24 -48 10 -14 18 -33 18 -42 0 -9 5 -16 11 -16 5 0 8 -4 4 -9 -3
-5 -1 -12 5 -16 6 -4 8 -11 5 -16 -4 -5 -1 -9 5 -9 6 0 9 -4 6 -9 -3 -4 1 -16
8 -27 8 -10 12 -24 9 -31 -3 -7 2 -15 10 -19 9 -3 13 -12 11 -19 -3 -7 0 -16
5 -20 6 -3 9 -11 6 -16 -4 -5 -1 -9 4 -9 6 0 11 -9 11 -21 0 -11 5 -17 10 -14
6 3 10 -1 10 -10 0 -10 11 -39 24 -65 13 -27 22 -51 19 -54 -4 -3 -1 -6 5 -6
7 0 12 -9 12 -20 0 -11 4 -20 8 -20 5 0 9 -7 10 -15 1 -8 3 -22 4 -30 1 -8 6
-15 11 -15 5 0 3 -8 -4 -17 -12 -15 -12 -16 1 -8 13 8 13 7 1 -8 -11 -14 -11
-20 -1 -32 8 -9 8 -15 2 -15 -6 0 -14 -9 -17 -20 -4 -11 -10 -18 -15 -15 -4 3
-10 -2 -14 -10 -3 -8 -13 -15 -21 -15 -10 0 -13 -5 -9 -12 6 -10 5 -10 -7 -1
-8 6 -27 10 -42 9 -15 -2 -30 1 -33 6 -3 4 -10 5 -16 2 -6 -4 -8 -2 -4 4 3 6
-4 19 -17 29 -13 10 -25 23 -26 28 -2 6 -7 21 -12 33 -5 13 -7 27 -4 32 3 5 0
12 -5 15 -12 7 -34 55 -32 68 1 4 -3 7 -9 7 -5 0 -7 5 -4 10 3 6 1 10 -5 10
-6 0 -9 4 -5 9 3 5 -6 22 -20 37 -14 15 -25 24 -25 21 0 -4 -11 -2 -25 3 -14
5 -25 6 -25 1 0 -4 -7 -8 -15 -8 -8 0 -15 4 -15 9 0 5 -10 4 -21 -3 -17 -8
-23 -8 -29 1 -5 8 -13 9 -21 4 -20 -12 -39 -14 -39 -3 0 5 -11 4 -25 -1 -17
-7 -25 -6 -25 1 0 8 -5 7 -15 -1 -10 -8 -15 -9 -15 -1 0 7 -8 8 -25 1 -16 -6
-25 -6 -25 1 0 6 -8 5 -22 -2 -16 -9 -23 -9 -26 -1 -3 9 -9 9 -24 1 -16 -8
-19 -8 -13 1 6 9 2 9 -14 1 -14 -8 -21 -8 -21 -1 0 7 -7 7 -22 -1 -17 -9 -23
-9 -26 1 -3 9 -6 9 -13 -1 -6 -10 -9 -11 -9 -1 0 10 -4 10 -20 0 -11 -7 -20
-20 -20 -29 0 -9 -7 -22 -15 -29 -9 -7 -14 -19 -11 -26 3 -7 -2 -15 -10 -18
-8 -3 -13 -9 -12 -13 3 -14 -13 -53 -22 -53 -5 0 -7 -9 -5 -20 2 -11 0 -20 -5
-20 -5 0 -7 -9 -5 -20 2 -12 -2 -23 -10 -26 -7 -3 -11 -12 -8 -20 3 -8 0 -14
-7 -14 -6 0 -18 -7 -26 -15 -18 -18 -38 -20 -28 -3 5 7 3 8 -5 3 -18 -10 -83
-16 -77 -6 3 4 -6 13 -20 20 -17 7 -24 17 -20 26 3 8 1 15 -4 15 -6 0 -10 5
-10 11 0 5 5 7 11 3 8 -5 8 -1 0 14 -14 26 -14 35 0 26 8 -5 8 -1 0 14 -8 15
-7 23 4 32 8 7 14 15 13 18 -1 4 3 17 10 28 6 12 8 24 5 28 -3 3 -1 6 5 6 7 0
12 9 12 19 0 11 5 23 10 26 6 4 8 11 5 16 -4 5 -1 9 4 9 6 0 11 9 11 20 0 11
5 20 12 20 6 0 8 3 5 7 -4 3 -2 12 4 20 9 10 8 13 -1 13 -8 0 -5 7 7 18 11 9
18 23 16 30 -3 6 0 12 7 12 6 0 8 5 5 10 -4 6 -1 17 5 25 7 8 9 15 4 15 -5 0
-3 4 4 9 7 4 15 17 17 27 2 10 4 20 5 22 2 1 3 5 4 10 1 4 12 26 24 48 11 23
18 44 15 48 -4 3 -1 6 6 6 8 0 11 8 8 20 -3 11 -1 18 4 14 8 -5 13 9 10 29 0
4 3 7 8 7 5 0 12 7 15 16 3 8 2 13 -2 10 -4 -2 4 21 19 52 15 31 27 61 26 67
-1 5 4 9 11 7 10 -2 10 2 1 19 -8 15 -8 19 0 15 6 -4 11 -2 11 3 0 20 2 26 21
52 10 14 16 29 12 33 -3 3 0 6 7 6 7 0 11 3 7 6 -3 3 3 22 14 41 11 19 14 31
7 27 -7 -4 -4 3 6 15 20 23 27 40 30 78 0 11 4 19 9 16 6 -4 11 21 10 54 -1 7
3 10 8 7 5 -3 9 2 9 10 0 9 5 16 11 16 5 0 7 5 4 10 -3 6 -2 10 3 10 5 0 22
11 37 25 22 18 32 21 42 13 10 -8 13 -7 13 3z m870 -2 c0 -5 13 -6 29 -4 40 5
91 -41 94 -84 1 -17 6 -31 10 -31 4 0 3 -10 -4 -21 -8 -15 -8 -19 0 -15 8 5 8
0 2 -17 -7 -17 -6 -29 2 -37 9 -10 9 -11 0 -6 -7 4 -13 2 -13 -3 0 -6 4 -11
10 -11 6 0 6 -9 0 -25 -7 -17 -6 -25 1 -25 8 0 7 -5 -1 -15 -10 -12 -10 -15 1
-15 9 0 10 -3 4 -8 -13 -9 -16 -42 -4 -42 6 0 5 -10 -2 -21 -8 -15 -8 -19 0
-15 8 5 8 0 1 -18 -6 -17 -6 -27 1 -32 6 -4 6 -11 -2 -20 -9 -11 -9 -14 1 -14
10 0 10 -3 0 -15 -10 -12 -10 -15 0 -15 9 0 9 -4 2 -13 -14 -16 1 -42 18 -32
8 5 11 4 7 -1 -3 -5 16 -10 43 -10 33 0 47 3 43 10 -5 8 -3 8 8 0 17 -12 48
-12 68 0 9 6 12 5 8 -1 -4 -5 6 -10 23 -10 17 0 27 5 23 10 -4 6 -1 7 8 1 19
-12 109 -11 109 1 0 7 3 7 8 0 10 -14 64 -16 55 -2 -4 6 -1 7 8 2 20 -13 49
-13 49 -1 0 7 3 8 8 1 10 -15 64 -16 55 -1 -4 6 1 5 11 -3 15 -13 19 -13 27 0
7 12 9 12 9 -1 1 -12 3 -12 14 2 7 10 17 14 22 10 4 -4 4 0 -2 8 -12 18 -12
69 0 89 6 10 5 12 -3 7 -14 -9 -11 30 3 53 7 10 6 12 -4 6 -10 -6 -12 -4 -7 7
3 9 0 21 -6 28 -9 10 -9 11 1 6 10 -6 12 3 8 38 -3 31 0 46 7 46 8 0 9 3 2 8
-13 8 -13 141 -1 161 6 9 5 12 -2 8 -6 -5 -8 1 -5 13 3 12 8 19 10 16 3 -2 20
11 38 30 22 22 36 30 41 23 4 -8 9 -7 15 2 6 10 9 10 9 2 0 -8 11 -11 30 -8
17 2 30 -1 30 -6 0 -5 7 -9 16 -9 8 0 12 -4 9 -10 -3 -5 -2 -10 4 -10 14 0 28
-28 35 -72 4 -24 2 -38 -5 -38 -6 0 -7 -5 -2 -12 12 -21 14 -48 2 -48 -6 0 -7
-5 -2 -12 12 -21 14 -48 2 -48 -6 0 -7 -5 -2 -12 13 -22 14 -50 1 -42 -7 5 -8
3 -3 -7 11 -18 13 -239 2 -239 -4 0 -5 -6 0 -12 12 -21 14 -48 2 -48 -6 0 -7
-5 -2 -12 13 -22 14 -50 1 -42 -7 4 -8 3 -4 -5 13 -21 17 -61 6 -61 -7 0 -8
-5 -3 -12 13 -22 14 -50 1 -42 -7 5 -8 3 -3 -5 12 -20 15 -81 4 -81 -6 0 -7
-6 -2 -12 12 -21 14 -48 2 -48 -6 0 -7 -5 -2 -12 13 -22 14 -50 1 -42 -7 4 -8
3 -4 -5 13 -21 17 -61 6 -61 -7 0 -8 -5 -3 -12 13 -21 14 -50 2 -42 -8 4 -8 1
-1 -12 5 -11 8 -28 6 -39 -1 -11 2 -23 9 -27 9 -6 9 -8 0 -8 -8 0 -13 -14 -13
-34 0 -19 -5 -38 -10 -41 -6 -4 -8 -11 -5 -16 4 -5 -1 -9 -10 -9 -9 0 -14 -4
-11 -8 9 -16 -44 -36 -90 -35 -45 2 -109 36 -99 54 4 5 2 9 -2 9 -5 0 -9 18
-9 39 0 26 3 38 10 34 6 -4 5 1 -3 10 -10 13 -11 20 -2 30 6 8 7 17 3 21 -12
12 -11 87 1 79 6 -4 7 -1 2 8 -12 19 -14 49 -3 55 4 3 5 11 1 17 -13 20 -12
88 1 80 8 -5 8 -3 0 8 -6 8 -10 35 -9 62 1 33 -3 47 -12 47 -7 0 -13 6 -14 13
0 6 -2 8 -5 2 -4 -11 -76 -11 -93 0 -6 3 -11 0 -12 -7 0 -10 -2 -11 -6 0 -4
10 -8 10 -19 1 -11 -9 -14 -8 -14 2 0 11 -2 11 -10 -1 -9 -13 -11 -13 -20 0
-5 8 -10 11 -10 5 0 -5 -11 -10 -25 -10 -14 0 -25 4 -25 9 0 5 -7 3 -15 -4
-12 -10 -15 -10 -15 1 0 11 -3 11 -11 -1 -9 -12 -12 -13 -16 -1 -5 11 -7 11
-14 0 -7 -12 -9 -12 -9 0 0 11 -3 11 -15 1 -12 -10 -15 -10 -15 1 0 9 -3 10
-8 4 -9 -13 -42 -15 -42 -3 0 6 -6 5 -15 -2 -12 -10 -15 -10 -15 1 0 9 -3 10
-8 4 -4 -5 -14 -10 -22 -10 -8 0 -18 5 -22 10 -5 7 -8 7 -8 0 0 -5 -19 -9 -42
-8 -24 0 -47 -2 -53 -5 -12 -8 -16 -42 -6 -42 4 0 7 -10 5 -22 -1 -13 -3 -23
-4 -23 -1 0 -3 -10 -4 -22 -2 -13 2 -23 8 -23 6 0 4 -5 -4 -10 -10 -6 -11 -10
-3 -10 9 0 10 -7 3 -25 -7 -17 -6 -25 1 -25 8 0 7 -5 -1 -15 -10 -12 -10 -15
1 -15 9 0 10 -3 4 -8 -13 -9 -16 -42 -4 -42 6 0 5 -10 -2 -21 -8 -15 -8 -19 0
-15 8 5 8 0 2 -17 -7 -17 -6 -29 2 -37 9 -10 9 -11 0 -6 -7 4 -13 2 -13 -3 0
-6 4 -11 10 -11 6 0 6 -9 0 -25 -7 -18 -6 -25 3 -26 9 0 9 -2 0 -6 -7 -2 -13
-13 -13 -23 0 -28 -11 -51 -22 -44 -5 3 -12 -3 -15 -15 -3 -11 -9 -19 -13 -16
-5 3 -11 2 -14 -3 -2 -4 -28 -7 -56 -6 -43 1 -56 6 -78 30 -15 16 -26 32 -25
36 2 5 -1 8 -6 8 -5 0 -11 13 -13 30 -3 17 0 30 6 30 6 0 4 5 -4 10 -11 7 -11
10 -2 10 10 0 10 5 2 20 -6 11 -7 20 -2 20 5 0 6 20 2 45 -4 27 -3 45 3 45 5
0 4 7 -3 15 -7 8 -8 15 -3 15 6 0 7 18 3 45 -5 30 -3 45 4 45 6 0 4 5 -4 10
-8 5 -10 10 -4 10 8 0 9 13 4 40 -5 27 -4 40 4 40 6 0 4 5 -4 10 -11 7 -11 10
-2 10 10 0 10 5 2 20 -8 15 -8 20 2 20 9 0 9 3 -2 10 -13 9 -13 10 0 10 13 0
13 1 0 10 -11 7 -11 10 -2 10 10 0 10 5 2 20 -8 15 -8 20 2 20 9 0 9 3 -2 10
-13 9 -13 10 0 10 13 0 13 1 0 10 -11 7 -11 10 -2 10 10 0 10 5 2 20 -8 15 -8
20 2 20 9 0 9 3 -2 10 -13 9 -13 10 0 10 13 0 13 1 0 10 -11 7 -11 10 -2 10
10 0 10 5 2 20 -6 11 -7 20 -2 20 5 0 6 18 2 40 -5 25 -4 40 3 40 5 0 4 7 -3
15 -7 8 -8 15 -3 15 6 0 7 18 3 45 -4 27 -3 45 3 45 5 0 4 7 -3 15 -7 8 -8 15
-3 15 6 0 7 18 3 45 -4 27 -3 45 3 45 5 0 5 5 -1 13 -7 8 -7 18 -2 27 6 9 5
17 -3 22 -9 6 -8 8 3 8 13 0 13 1 0 10 -8 5 -10 10 -5 10 6 0 10 16 9 35 -2
27 5 42 28 65 16 17 38 30 49 30 11 0 18 4 15 8 -3 5 1 9 9 9 8 0 15 -4 15 -8z
m2310 -5 c0 5 6 3 13 -3 8 -6 17 -7 21 -3 4 4 6 3 5 -3 -2 -5 4 -21 13 -35 13
-22 21 -61 19 -107 -1 -7 -1 -30 -1 -50 0 -44 -1 -78 -4 -113 -1 -14 2 -33 7
-44 7 -14 6 -16 -4 -11 -9 6 -10 3 -4 -11 4 -10 7 -30 6 -44 -2 -14 -4 -36 -5
-50 -1 -14 2 -33 7 -44 6 -13 6 -16 -2 -11 -8 5 -10 -2 -5 -21 4 -16 7 -33 6
-39 -7 -42 -6 -72 2 -82 5 -8 5 -13 -1 -13 -5 0 -9 -9 -9 -20 0 -11 3 -20 6
-20 11 0 -2 -65 -14 -72 -7 -5 -7 -8 2 -8 9 0 12 -10 11 -28 -2 -15 0 -33 4
-40 5 -7 3 -12 -4 -12 -8 0 -9 -3 0 -13 6 -8 8 -16 5 -20 -10 -9 -11 -68 -2
-74 5 -2 1 -12 -9 -20 -10 -8 -12 -11 -4 -7 11 5 13 3 8 -9 -3 -10 -3 -17 2
-17 11 0 1 -62 -13 -79 -9 -12 -8 -13 3 -6 11 6 13 3 9 -13 -4 -13 -1 -22 5
-23 8 0 7 -2 -1 -6 -10 -4 -10 -8 -1 -19 9 -11 8 -14 -2 -14 -11 0 -11 -2 1
-10 9 -6 11 -10 3 -10 -7 0 -10 -7 -7 -15 4 -8 2 -21 -4 -28 -5 -6 -8 -20 -7
-29 2 -10 -3 -18 -10 -18 -7 0 -18 -7 -25 -15 -7 -8 -16 -12 -21 -9 -5 3 -9 2
-9 -3 0 -12 -74 -10 -82 2 -5 6 -8 4 -8 -4 0 -9 -6 -7 -19 7 -10 12 -20 19
-24 16 -3 -3 -13 13 -23 35 -10 23 -24 41 -32 41 -7 0 -11 4 -7 9 3 5 1 12 -5
16 -6 4 -7 11 -4 17 4 6 2 8 -3 5 -6 -4 -18 2 -28 13 -10 11 -14 20 -10 20 4
0 -6 14 -23 30 -18 17 -32 32 -32 35 0 6 -13 23 -60 73 -19 20 -33 39 -32 42
1 3 -5 13 -13 23 -8 9 -15 22 -15 29 0 6 -3 8 -7 5 -3 -4 -17 5 -30 19 -21 23
-27 37 -24 57 1 5 -3 6 -9 2 -5 -3 -10 -1 -10 4 0 6 -13 24 -30 39 -16 16 -30
34 -30 40 0 5 -7 13 -16 16 -8 3 -12 10 -9 16 3 5 -2 10 -11 10 -10 0 -15 3
-11 6 7 7 -25 42 -35 37 -4 -2 -10 2 -14 8 -4 8 -3 9 4 5 21 -13 13 6 -14 30
-14 13 -22 24 -18 24 5 0 -7 12 -24 26 -18 15 -32 32 -32 38 0 13 -64 86 -75
86 -4 0 -5 -9 -2 -20 3 -11 1 -20 -5 -20 -5 0 -6 -5 -2 -11 8 -14 8 -124 -1
-138 -3 -6 0 -11 7 -11 9 0 9 -3 -2 -10 -8 -5 -10 -10 -4 -10 6 0 11 -7 11
-15 0 -8 -5 -15 -11 -15 -6 0 -6 -4 1 -11 8 -8 8 -20 3 -35 -7 -17 -6 -24 3
-24 8 0 7 -4 -3 -10 -13 -9 -13 -10 0 -10 13 0 13 -1 0 -10 -13 -9 -13 -10 0
-10 11 0 12 -2 3 -8 -8 -5 -9 -13 -3 -22 5 -8 5 -21 -1 -32 -7 -13 -6 -18 3
-18 9 0 9 -3 -2 -10 -8 -5 -10 -10 -4 -10 6 0 11 -7 11 -15 0 -8 -5 -15 -11
-15 -6 0 -6 -4 1 -11 8 -8 8 -20 3 -35 -7 -17 -6 -24 3 -24 8 0 7 -4 -3 -10
-13 -9 -13 -10 0 -10 13 0 13 -1 0 -10 -13 -9 -13 -10 0 -10 11 0 12 -2 3 -8
-8 -5 -9 -13 -3 -22 5 -8 5 -21 -1 -32 -7 -13 -6 -18 3 -18 9 0 9 -3 -2 -10
-8 -5 -10 -10 -4 -10 6 0 11 -7 11 -15 0 -8 -5 -15 -10 -15 -5 0 -4 -7 3 -15
7 -8 8 -15 3 -15 -5 0 -9 -10 -8 -23 3 -26 -11 -55 -35 -79 -18 -17 -95 -35
-86 -19 3 5 -3 7 -15 4 -20 -6 -67 32 -61 49 1 5 -2 8 -6 8 -12 0 -13 42 -1
56 5 7 6 15 2 17 -11 7 -10 247 0 264 4 6 3 14 -1 17 -10 6 -9 86 1 103 4 6 3
14 -1 17 -10 6 -9 86 1 103 4 6 4 14 -1 17 -4 3 -8 38 -7 78 1 40 -3 79 -9 87
-9 12 -8 13 3 6 11 -6 13 -3 7 18 -3 14 -1 29 4 32 8 5 7 11 -1 21 -6 8 -9 17
-6 21 4 3 1 13 -6 21 -10 13 -9 14 2 7 11 -6 13 -3 7 18 -3 14 -1 29 4 32 8 5
7 11 -1 21 -6 8 -9 17 -6 21 4 3 1 13 -6 21 -10 13 -9 14 2 7 11 -6 13 -3 8
15 -3 13 -1 31 6 39 8 10 8 13 1 8 -7 -4 -15 0 -18 9 -4 10 -2 13 6 8 7 -5 9
1 4 19 -3 14 -1 29 4 32 7 4 7 11 2 18 -5 7 -9 21 -8 32 2 21 35 86 36 71 0
-6 6 -1 14 10 20 27 114 29 137 2 9 -9 19 -15 22 -12 3 3 14 -7 24 -23 9 -15
26 -34 35 -41 10 -7 16 -17 14 -21 -3 -4 4 -13 14 -21 10 -8 17 -17 14 -22 -3
-4 0 -8 6 -8 6 0 8 -4 5 -10 -3 -5 -1 -10 6 -10 7 0 9 -3 6 -6 -4 -4 8 -19 25
-34 20 -18 28 -32 23 -40 -5 -7 -4 -11 1 -8 9 6 32 -13 37 -29 1 -5 5 -7 10
-5 4 1 7 -5 7 -13 0 -8 4 -15 9 -15 5 0 11 -10 13 -22 2 -13 9 -22 16 -20 6 1
12 -4 12 -12 0 -8 9 -21 20 -29 11 -8 17 -17 13 -20 -3 -4 -1 -7 5 -7 7 0 12
-7 12 -16 0 -8 4 -13 9 -9 5 3 12 -4 16 -15 3 -11 10 -20 15 -20 5 0 17 -16
26 -35 9 -19 20 -33 24 -30 4 3 15 -10 24 -29 9 -19 23 -37 32 -40 8 -3 12
-10 9 -16 -3 -5 2 -10 11 -10 10 0 15 -3 11 -6 -6 -6 0 -16 45 -66 15 -17 30
-39 33 -49 4 -11 13 -19 21 -19 8 0 13 -4 9 -9 -3 -5 4 -16 15 -24 11 -7 17
-17 13 -20 -3 -4 -1 -7 5 -7 6 0 14 -9 17 -20 3 -11 11 -20 16 -20 6 0 7 5 4
10 -3 6 -2 10 3 10 10 0 9 30 -2 48 -4 7 -2 12 6 12 9 0 9 3 -2 10 -8 5 -10
10 -3 10 6 0 9 9 6 21 -4 12 0 25 8 30 12 7 12 9 0 9 -8 0 -11 7 -8 20 3 11 0
20 -6 21 -8 0 -7 2 1 6 10 4 10 8 1 19 -6 8 -7 14 -2 14 5 0 9 9 9 20 0 11 -5
20 -11 20 -6 0 -7 3 0 8 12 8 14 72 2 72 -4 0 -3 9 3 20 8 15 8 20 -2 21 -10
0 -10 2 -1 5 9 4 9 13 3 30 -6 14 -6 23 -1 20 5 -3 8 5 7 19 0 14 -5 25 -11
25 -7 0 -7 3 0 8 6 4 10 16 10 27 0 11 -4 23 -10 27 -6 5 -5 8 4 8 11 0 11 3
1 15 -7 9 -8 15 -2 15 12 0 10 33 -3 42 -6 5 -6 8 2 8 6 0 9 9 5 22 -4 16 -2
19 9 13 12 -8 12 -6 0 8 -7 9 -11 24 -7 32 3 8 0 15 -7 15 -7 0 -8 3 -2 8 6 4
10 16 10 27 0 11 -4 23 -10 27 -6 5 -5 8 3 8 7 0 10 5 7 10 -3 6 0 10 7 11 10
0 10 2 1 6 -10 3 -10 7 0 18 7 7 15 11 20 8 4 -2 7 2 7 9 0 19 30 35 63 34 15
-1 27 3 27 9 0 5 5 3 10 -5 5 -8 10 -11 10 -6z"/>
<path d="M2800 3352 c0 -7 -5 -10 -10 -7 -6 4 -13 -7 -16 -24 -4 -17 -10 -28
-15 -25 -5 3 -6 -2 -3 -10 3 -9 2 -16 -4 -16 -9 0 -27 -55 -23 -72 0 -5 -3 -8
-9 -8 -5 0 -10 -3 -9 -7 2 -15 -14 -53 -22 -53 -5 0 -6 -7 -3 -15 4 -8 1 -15
-5 -15 -6 0 -11 -9 -11 -20 0 -11 -5 -20 -11 -20 -6 0 -9 -7 -5 -15 3 -8 1
-15 -4 -15 -6 0 -9 -3 -8 -7 0 -5 -2 -16 -6 -25 -10 -22 0 -52 14 -43 6 4 18
1 27 -7 9 -7 14 -8 10 -2 -4 8 34 11 131 10 143 -2 162 0 162 16 0 5 -4 7 -9
4 -5 -4 -7 2 -4 12 2 9 -3 31 -11 47 -9 17 -16 26 -17 20 -1 -14 -21 36 -24
59 -1 11 -7 22 -14 24 -9 3 -9 7 0 18 15 18 3 48 -16 40 -8 -3 -14 -2 -13 2 1
4 -4 20 -10 35 -7 16 -9 33 -6 39 4 6 2 8 -3 5 -6 -4 -20 14 -31 41 -12 26
-21 41 -22 34z"/>
</g>
</svg>
